<svg xmlns="http://www.w3.org/2000/svg" viewBox="0 0 800 600" role="img">
  <defs>
    <linearGradient id="bg" x1="0" y1="0" x2="0" y2="1"><stop offset="0%" stop-color="#cbd5e1"/><stop offset="100%" stop-color="#94a3b8"/></linearGradient>
  </defs>
  <rect width="800" height="600" fill="url(#bg)"/>
  <rect x="0" y="420" width="800" height="180" fill="#86efac" opacity="0.5"/>
  <ellipse cx="400" cy="120" rx="180" ry="60" fill="#64748b"/>
  <ellipse cx="300" cy="100" rx="100" ry="45" fill="#64748b"/>
  <ellipse cx="500" cy="105" rx="110" ry="50" fill="#64748b"/>
  <path d="M200 380 Q400 280 600 380" fill="none" stroke="#ef4444" stroke-width="8" opacity="0.7"/>
  <path d="M200 380 Q400 268 600 380" fill="none" stroke="#f97316" stroke-width="8" opacity="0.7"/>
  <path d="M200 380 Q400 256 600 380" fill="none" stroke="#eab308" stroke-width="8" opacity="0.7"/>
  <path d="M200 380 Q400 244 600 380" fill="none" stroke="#22c55e" stroke-width="8" opacity="0.7"/>
  <path d="M200 380 Q400 232 600 380" fill="none" stroke="#3b82f6" stroke-width="8" opacity="0.7"/>
  <path d="M200 380 Q400 220 600 380" fill="none" stroke="#8b5cf6" stroke-width="8" opacity="0.7"/>
  <ellipse cx="520" cy="430" rx="30" ry="18" fill="#84cc16" opacity="0.8"/>
</svg>
