<svg xmlns="http://www.w3.org/2000/svg" viewBox="0 0 100 112" fill="none" aria-hidden="true">
  <defs>
    <linearGradient id="naroBodyG" x1="50" y1="28" x2="50" y2="92" gradientUnits="userSpaceOnUse">
      <stop stop-color="#2EC492"/>
      <stop offset="1" stop-color="#0F9B6C"/>
    </linearGradient>
    <linearGradient id="naroLeafG" x1="0" y1="0" x2="0" y2="1">
      <stop stop-color="#7EE0B3"/>
      <stop offset="1" stop-color="#3CB88A"/>
    </linearGradient>
    <filter id="naroSoftShadow" x="-20%" y="-10%" width="140%" height="130%">
      <feDropShadow dx="0" dy="6" stdDeviation="5" flood-color="#0A7A52" flood-opacity="0.22"/>
    </filter>
  </defs>
  <ellipse class="naro-svg-shadow" cx="50" cy="98" rx="26" ry="6" fill="#0A7A52" opacity="0.12"/>
  <g class="naro-svg-body-wrap" filter="url(#naroSoftShadow)">
    <path class="naro-svg-leaf naro-svg-leaf-l" d="M38 32C32 18 22 14 28 28C30 34 34 36 38 32Z" fill="url(#naroLeafG)"/>
    <path class="naro-svg-leaf naro-svg-leaf-r" d="M62 32C68 18 78 14 72 28C70 34 66 36 62 32Z" fill="url(#naroLeafG)"/>
    <ellipse class="naro-svg-body" cx="50" cy="58" rx="34" ry="36" fill="url(#naroBodyG)"/>
    <ellipse class="naro-svg-blush naro-svg-blush-l" cx="32" cy="62" rx="6" ry="3.5" fill="#FF9EB5" opacity="0.45"/>
    <ellipse class="naro-svg-blush naro-svg-blush-r" cx="68" cy="62" rx="6" ry="3.5" fill="#FF9EB5" opacity="0.45"/>
    <g class="naro-svg-eye naro-svg-eye-l">
      <ellipse cx="38" cy="54" rx="9" ry="10" fill="#fff"/>
      <circle class="naro-svg-pupil" cx="39" cy="55" r="5" fill="#1A2E28"/>
      <circle cx="41" cy="52" r="2" fill="#fff" opacity="0.9"/>
    </g>
    <g class="naro-svg-eye naro-svg-eye-r">
      <ellipse cx="62" cy="54" rx="9" ry="10" fill="#fff"/>
      <circle class="naro-svg-pupil" cx="61" cy="55" r="5" fill="#1A2E28"/>
      <circle cx="63" cy="52" r="2" fill="#fff" opacity="0.9"/>
    </g>
    <path class="naro-svg-mouth-smile" d="M42 68 Q50 76 58 68" stroke="#1A2E28" stroke-width="2.2" stroke-linecap="round" fill="none"/>
    <ellipse class="naro-svg-mouth-open" cx="50" cy="70" rx="7" ry="5" fill="#1A2E28" opacity="0"/>
  </g>
</svg>
