<svg xmlns="http://www.w3.org/2000/svg" viewBox="0 0 120 140" role="img" aria-label="胖达">
  <ellipse cx="60" cy="118" rx="38" ry="14" fill="#000" opacity="0.08"/>
  <ellipse cx="60" cy="78" rx="44" ry="48" fill="#fff" stroke="#1a1a1a" stroke-width="2"/>
  <circle cx="28" cy="42" r="18" fill="#1a1a1a"/>
  <circle cx="92" cy="42" r="18" fill="#1a1a1a"/>
  <circle cx="28" cy="44" r="9" fill="#fff"/>
  <circle cx="92" cy="44" r="9" fill="#fff"/>
  <ellipse cx="60" cy="82" rx="32" ry="30" fill="#fff"/>
  <ellipse cx="44" cy="76" rx="10" ry="12" fill="#1a1a1a" opacity="0.85"/>
  <ellipse cx="76" cy="76" rx="10" ry="12" fill="#1a1a1a" opacity="0.85"/>
  <circle cx="44" cy="74" r="3.5" fill="#fff"/>
  <circle cx="76" cy="74" r="3.5" fill="#fff"/>
  <ellipse cx="60" cy="92" rx="7" ry="5" fill="#1a1a1a"/>
  <path class="panda-mouth-smile" d="M48 98 Q60 108 72 98" fill="none" stroke="#1a1a1a" stroke-width="2.5" stroke-linecap="round"/>
  <path class="panda-mouth-open" d="M52 96 Q60 106 68 96 Q60 100 52 96Z" fill="#e11d48" opacity="0" stroke="none"/>
  <ellipse cx="36" cy="88" rx="6" ry="3" fill="#fda4af" opacity="0.55"/>
  <ellipse cx="84" cy="88" rx="6" ry="3" fill="#fda4af" opacity="0.55"/>
  <ellipse cx="60" cy="128" rx="22" ry="10" fill="#fff" stroke="#1a1a1a" stroke-width="2"/>
</svg>
